{"title":"The.Fosters.2013.S03E07.HDTV.XViD-Sorrow","uid":12145967,"size":363992860,"categoryP":"video","categoryS":"hd___tv_shows","magnet":"?xt=urn:btih:8fec91fdc490dea7ae191924fb12549f02992eb5&amp;dn=The.Fosters.2013.S03E07.HDTV.XViD-Sorrow&amp;tr=udp%3A%2F%2Ftracker.openbittorrent.com%3A80&amp;tr=udp%3A%2F%2Fopen.demonii.com%3A1337&amp;tr=udp%3A%2F%2Ftracker.coppersurfer.tk%3A6969&amp;tr=udp%3A%2F%2Fexodus.desync.com%3A6969","seeders":5,"leechers":0,"uploader":null,"files":2,"time":1437470293,"description":"The Fosters 2013 S03E07 HDTV XViD-Sorrow\n\nGeneral\nComplete name                            : The.Fosters.2013.S03E07.HDTV.XViD-Sorrow.avi\nFormat                                   : AVI\nFormat/Info                              : Audio Video Interleave\nFile size                                : 347 MiB\nDuration                                 : 41mn 24s\nOverall bit rate                         : 1 172 Kbps\nWriting application                      : Lavf55.19.104\n\nVideo\nID                                       : 0\nFormat                                   : MPEG-4 Visual\nFormat profile                           : Simple@L3\nFormat settings, BVOP                    : No\nFormat settings, QPel                    : No\nFormat settings, GMC                     : No warppoints\nFormat settings, Matrix                  : Default (H.263)\nCodec ID                                 : XVID\nCodec ID/Hint                            : XviD\nDuration                                 : 41mn 24s\nBit rate                                 : 1 031 Kbps\nWidth                                    : 640 pixels\nHeight                                   : 360 pixels\nDisplay aspect ratio                     : 16:9\nFrame rate                               : 23.976 fps\nColor space                              : YUV\nChroma subsampling                       : 4:2:0\nBit depth                                : 8 bits\nScan type                                : Progressive\nCompression mode                         : Lossy\nBits/(Pixel*Frame)                       : 0.187\nStream size                              : 305 MiB (88%)\nWriting library                          : XviD 64\n\nAudio\nID                                       : 1\nFormat                                   : MPEG Audio\nFormat version                           : Version 1\nFormat profile                           : Layer 3\nMode                                     : Joint stereo\nMode extension                           : MS Stereo\nCodec ID                                 : 55\nCodec ID/Hint                            : MP3\nDuration                                 : 41mn 24s\nBit rate mode                            : Constant\nBit rate                                 : 128 Kbps\nChannel count                            : 2 channels\nSampling rate                            : 48.0 KHz\nCompression mode                         : Lossy\nStream size                              : 37.9 MiB (11%)\nAlignment                                : Aligned on interleaves\nInterleave, duration                     : 24 ms (0.58 video frame)\n\n\nSource:The.Fosters.2013.S03E07.720p.HDTV.x264-KILLERS","torrent":{"xt":"urn:btih:8fec91fdc490dea7ae191924fb12549f02992eb5","amp;dn":"The.Fosters.2013.S03E07.HDTV.XViD-Sorrow","amp;tr":["udp%3A%2F%2Ftracker.openbittorrent.com%3A80","udp%3A%2F%2Fopen.demonii.com%3A1337","udp%3A%2F%2Ftracker.coppersurfer.tk%3A6969","udp%3A%2F%2Fexodus.desync.com%3A6969"],"infoHash":"8fec91fdc490dea7ae191924fb12549f02992eb5","infoHashBuffer":{"type":"Buffer","data":[143,236,145,253,196,144,222,167,174,25,25,36,251,18,84,159,2,153,46,181]},"announce":[],"urlList":[]}}